<?xml version="1.0" standalone="no"?><svg xmlns="http://www.w3.org/2000/svg" viewBox="0 0 1440 320"><path fill="#0099ff" fill-opacity="1" d="M0,96L40,106.7C80,117,160,139,240,138.7C320,139,400,117,480,101.3C560,85,640,75,720,106.7C800,139,880,213,960,234.7C1040,256,1120,224,1200,197.3C1280,171,1360,149,1400,138.7L1440,128L1440,320L1400,320C1360,320,1280,320,1200,320C1120,320,1040,320,960,320C880,320,800,320,720,320C640,320,560,320,480,320C400,320,320,320,240,320C160,320,80,320,40,320L0,320Z"></path></svg>