<?xml version="1.0" standalone="no"?><svg xmlns="http://www.w3.org/2000/svg" viewBox="0 0 1440 320"><path fill="#000b76" fill-opacity="1" d="M0,160L40,181.3C80,203,160,245,240,218.7C320,192,400,96,480,58.7C560,21,640,43,720,80C800,117,880,171,960,170.7C1040,171,1120,117,1200,117.3C1280,117,1360,171,1400,197.3L1440,224L1440,320L1400,320C1360,320,1280,320,1200,320C1120,320,1040,320,960,320C880,320,800,320,720,320C640,320,560,320,480,320C400,320,320,320,240,320C160,320,80,320,40,320L0,320Z"></path></svg>